<?xml version="1.0" encoding="UTF-8" standalone="no"?>
<!-- Created with Inkscape (http://www.inkscape.org/) -->

<svg
   xmlns:dc="http://purl.org/dc/elements/1.1/"
   xmlns:cc="http://creativecommons.org/ns#"
   xmlns:rdf="http://www.w3.org/1999/02/22-rdf-syntax-ns#"
   xmlns:svg="http://www.w3.org/2000/svg"
   xmlns="http://www.w3.org/2000/svg"
   xmlns:sodipodi="http://sodipodi.sourceforge.net/DTD/sodipodi-0.dtd"
   xmlns:inkscape="http://www.inkscape.org/namespaces/inkscape"
   width="50mm"
   height="50mm"
   viewBox="0 0 210 297"
   version="1.1"
   id="svg8"
   inkscape:version="0.92.4 (5da689c313, 2019-01-14)"
   sodipodi:docname="logo.svg">
  <defs
     id="defs2">
    <inkscape:perspective
       sodipodi:type="inkscape:persp3d"
       inkscape:vp_x="40.676655 : 154.30526 : 1"
       inkscape:vp_y="0 : 795.51196 : 0"
       inkscape:vp_z="247.98317 : 154.30526 : 1"
       inkscape:persp3d-origin="144.32991 : 114.92741 : 1"
       id="perspective3713" />
  </defs>
  <sodipodi:namedview
     id="base"
     pagecolor="#ffffff"
     bordercolor="#666666"
     borderopacity="1.0"
     inkscape:pageopacity="0.0"
     inkscape:pageshadow="2"
     inkscape:zoom="0.35"
     inkscape:cx="400"
     inkscape:cy="560"
     inkscape:document-units="mm"
     inkscape:current-layer="layer1"
     showgrid="false"
     inkscape:window-width="1366"
     inkscape:window-height="705"
     inkscape:window-x="-8"
     inkscape:window-y="-8"
     inkscape:window-maximized="1"
     inkscape:snap-to-guides="true" />
  <metadata
     id="metadata5">
    <rdf:RDF>
      <cc:Work
         rdf:about="">
        <dc:format>image/svg+xml</dc:format>
        <dc:type
           rdf:resource="http://purl.org/dc/dcmitype/StillImage" />
        <dc:title></dc:title>
      </cc:Work>
    </rdf:RDF>
  </metadata>
  <g
     inkscape:label="Capa 1"
     inkscape:groupmode="layer"
     id="layer1">
    <path
       style="fill:#6c5353;stroke-width:0.26458332"
       id="path3847"
       d="m 10.497085,135.62603 c 2.189208,1.77073 4.074493,3.88582 6.146346,5.78855 2.148054,1.89016 4.333616,3.78599 6.867061,5.14029 1.865317,0.7664 3.788832,1.4209 5.775427,1.78779 1.633606,0.24598 3.290266,0.24151 4.938168,0.24939 1.860679,0.15843 3.662828,-0.17301 5.495726,-0.40833 1.489173,-0.53324 3.087148,-0.60626 4.424175,-1.48162 -16.90923,10.53243 -8.184065,4.78523 -4.629603,1.74876 1.541119,-1.36684 3.042063,-2.80038 4.322244,-4.41858 1.338927,-1.62759 2.03785,-3.63365 2.907726,-5.52712 1.017381,-2.49222 1.85365,-5.06785 2.586381,-7.65838 0.73755,-2.60852 1.637065,-5.17005 2.637036,-7.68882 1.174642,-3.07361 2.346762,-6.14434 3.501456,-9.22533 1.181103,-3.14189 2.169137,-6.35057 3.218942,-9.53787 0.757264,-2.33585 1.110311,-4.7617 1.295779,-7.201087 0.01675,-2.073989 0.150971,-4.126381 0.395978,-6.184786 0.297971,-2.400861 0.386582,-4.819954 0.427381,-7.236704 0.112014,-2.21589 -0.531751,-4.276518 -1.136991,-6.370804 0,0 9.740558,-5.310573 9.740558,-5.310573 v 0 c 0.623766,2.194594 1.326441,4.354491 1.271379,6.670497 -0.03991,2.439255 -0.03441,4.883648 -0.318431,7.310657 -0.249841,2.042367 -0.47421,4.067977 -0.424479,6.130893 -0.140364,2.538963 -0.55086,5.051235 -1.268079,7.494662 -1.032947,3.214385 -2.118781,6.413155 -3.222623,9.603615 -1.203944,3.05023 -2.278091,6.15286 -3.446396,9.218 -1.008399,2.47846 -1.88745,5.00844 -2.667016,7.56657 -0.717688,2.6371 -1.592424,5.23265 -2.497148,7.81006 -0.470207,1.03477 -0.950576,2.06826 -1.382945,3.11971 -0.228793,0.55639 -0.509342,1.40318 -0.833586,1.92188 -0.146053,0.23364 -0.354026,0.42231 -0.53104,0.63347 -1.119346,1.81241 -2.781083,3.22578 -4.297069,4.69987 -4.369514,3.94683 -8.802362,6.78837 -14.398273,9.43066 -1.481931,0.54805 -3.065145,0.8335 -4.607583,1.15631 -1.862082,0.26188 -3.723024,0.37122 -5.604891,0.28863 -1.697672,-0.028 -3.406584,-0.0527 -5.070986,-0.43039 -2.028413,-0.4952 -4.022964,-1.18187 -5.894013,-2.11192 -2.535054,-1.4958 -4.7494125,-3.43265 -6.9291674,-5.40028 -2.0717354,-1.89356 -3.9867395,-3.99703 -6.29803082,-5.60633 0,0 9.50658722,-5.97134 9.50658722,-5.97134 z"
       inkscape:connector-curvature="0" />
    <path
       style="fill:#6c5353;stroke-width:0.26458332"
       id="path3849"
       d="m 35.308227,56.068147 c 2.138228,-1.780923 4.361302,-3.458977 6.563461,-5.160655 2.44367,-1.666923 3.782226,-4.270037 5.489067,-6.579886 5.276791,-5.305031 12.477895,-8.518999 19.552351,-10.727769 5.387644,-1.520026 10.984288,-1.784448 16.543258,-1.993506 5.307263,0.0051 10.441765,1.257168 15.33409,3.229128 3.333006,1.573745 6.388586,3.660262 9.240226,5.981719 2.09812,1.624269 3.58954,3.803364 4.95455,6.042662 1.62494,2.539151 1.92725,5.461651 2.1498,8.391369 0.16451,4.076875 0.20184,8.16325 0.0333,12.240125 -0.42675,4.035838 -1.24037,8.007958 -2.29525,11.921429 -0.87287,3.074792 -2.28704,5.966534 -3.57961,8.881726 -1.47686,3.526065 -3.16941,6.949197 -5.10744,10.243381 -1.16585,2.00214 -2.25653,4.00056 -3.91292,5.63786 -4.007772,3.23863 -8.756524,6.24508 -13.858526,7.51801 -1.153171,0.25827 -2.361266,0.1315 -3.499485,0.46316 -0.553847,0.16139 -1.082532,0.39926 -1.626971,0.58999 -1.043088,0.4404 -2.211872,0.42178 -3.268922,0.80262 -0.263554,0.0949 -0.507547,0.23728 -0.761322,0.35593 -0.284504,0.10041 -0.569005,0.20083 -0.853509,0.30125 -4.216014,1.58809 -8.567229,5.71436 6.920936,-4.26459 0.15834,-0.10202 -0.217029,-0.32935 -0.227084,-0.51744 -0.0056,-0.10497 0.123876,-0.16987 0.185815,-0.2548 2.541275,0.14519 5.087223,0.1422 7.631641,0.15573 2.564665,-8e-4 5.129168,-0.0324 7.693726,-0.0519 1.721461,0.13572 3.273571,0.64203 4.592561,1.75942 1.7236,1.39957 3.09344,3.18326 4.17723,5.10928 1.03688,1.81078 2.03351,3.63293 2.8761,5.54337 1.01155,1.95444 1.54092,4.06545 1.84162,6.22992 0.23234,2.0634 0.23034,4.14421 0.22249,6.21785 0.005,2.06783 -0.006,4.13561 -0.003,6.20343 -0.0533,2.11867 -0.6294,4.16492 -1.03227,6.23215 -0.22963,1.78144 -0.44762,3.5246 -0.95928,5.25035 -0.54824,1.96771 -1.19713,3.90415 -1.87251,5.8312 -0.71273,1.88606 -1.404,3.77 -1.82491,5.74467 -0.44015,1.64364 -0.099,2.99946 0.71117,4.44437 0.77927,1.50824 2.04038,2.67299 3.22893,3.85578 1.24607,1.2167 2.58143,2.34371 3.99827,3.35832 1.57085,0.9184 3.182,1.79273 4.88439,2.44519 1.67088,0.54599 3.44785,0.53661 5.18679,0.57281 2.28087,0.24306 4.23209,-0.58025 6.13162,-1.76761 -14.47244,8.64324 -8.27358,5.46295 -5.02288,1.34976 1.13311,-1.4567 2.15185,-3.02799 2.90017,-4.71679 1.11583,-3.06612 1.71464,-6.28987 2.55684,-9.43639 0.90887,-2.87766 1.79291,-5.76214 2.94582,-8.55303 0.49523,-1.31109 1.08232,-2.58283 1.83369,-3.76626 0,0 10.25938,-4.51392 10.25938,-4.51392 v 0 c -0.74593,1.16564 -1.56926,2.28742 -1.98649,3.63273 -1.21516,2.77353 -2.26049,5.60118 -3.16488,8.49317 -0.88757,3.12456 -1.39037,6.34767 -2.34467,9.45261 -0.59926,1.83846 -1.64628,3.45499 -2.74434,5.03823 -2.26372,2.68385 1.00499,-1.24165 -1.18392,1.5565 -3.10587,3.97033 -9.0177,6.11108 -12.69504,8.43837 -2.08823,1.01304 -4.1807,1.58252 -6.52324,1.31593 -1.84528,-0.077 -3.72009,-0.14121 -5.44126,-0.88959 -1.7269,-0.77413 -3.42479,-1.63777 -5.01477,-2.66598 -1.45755,-1.05416 -2.79641,-2.25685 -4.08475,-3.51062 -1.268927,-1.2515 -2.580453,-2.50126 -3.395838,-4.11255 -0.931342,-1.62601 -1.524487,-3.26153 -1.077167,-5.14864 0.373092,-2.03902 1.022078,-3.98701 1.778969,-5.91483 0.720333,-1.88733 1.328817,-3.81747 1.875986,-5.76229 0.52273,-1.69849 0.8928,-3.3676 1.01736,-5.1489 0.37777,-2.01628 0.96949,-3.99268 1.1244,-6.04539 0.0113,-2.07057 0.0157,-4.14113 0.0271,-6.21168 -0.0128,-2.02952 0.007,-4.06338 -0.17145,-6.08702 -0.23884,-2.07229 -0.69866,-4.09469 -1.67818,-5.95733 -0.816373,-1.88653 -1.844525,-3.6509 -2.843216,-5.44397 -0.983178,-1.82173 -2.278009,-3.47454 -3.969139,-4.69342 -1.249598,-0.82783 -2.658147,-1.17056 -4.157572,-1.17326 -2.529597,-0.01 -5.059167,-0.0266 -7.588785,-0.0298 -2.660348,0.003 -5.359437,0.1101 -7.995258,-0.27471 -5.228926,-3.6934 7.271425,-6.33958 11.195428,-8.18995 1.605881,-0.59935 3.287887,-0.88781 4.910323,-1.43717 1.696966,-0.52232 3.449095,-0.59608 5.163277,-1.03652 0.729343,-0.24858 1.465141,-0.50643 2.163242,-0.83564 0.225528,-0.10636 0.875731,-0.47694 0.661072,-0.35008 -9.724594,5.74724 -11.657206,7.03249 -8.15943,4.73645 0.672994,-0.58792 1.401318,-1.16782 1.958059,-1.87348 0.87203,-1.10527 1.400559,-2.4272 2.236396,-3.55741 2.041176,-3.192165 3.719513,-6.586129 5.150784,-10.094256 1.239369,-2.90254 2.655949,-5.744852 3.654729,-8.739078 1.05118,-3.872429 2.04663,-7.748474 2.50197,-11.750567 0.16317,-4.021809 0.0917,-8.051866 -0.0836,-12.072728 -0.19943,-2.745296 -0.45796,-5.501979 -1.95435,-7.894775 -1.32398,-2.114619 -2.74735,-4.187878 -4.726709,-5.750904 -2.751227,-2.25783 -5.702689,-4.297286 -8.95613,-5.767702 -4.772848,-1.897909 -9.777637,-3.067122 -14.94873,-2.940767 -5.536333,0.245888 -11.111619,0.618953 -16.435861,2.284817 -1.799789,0.614712 -2.753884,0.889542 -4.466045,1.666071 -0.642623,0.291451 -2.49201,1.321506 -1.890075,0.953293 14.700655,-8.992547 8.405587,-5.300371 5.560957,-2.883677 -0.307401,0.338825 -0.652611,0.646856 -0.922205,1.016476 -0.281136,0.385439 -0.471379,0.829794 -0.720982,1.236369 -1.043316,1.699432 -2.179119,3.32406 -3.767275,4.566713 -1.57362,1.216189 -3.103351,2.517627 -4.712287,3.684852 -0.333598,0.242012 -0.713201,0.419923 -1.031444,0.6818 -0.249399,0.205224 -0.439751,0.473165 -0.659625,0.709744 0,0 -10.418746,4.181126 -10.418746,4.181126 z"
       inkscape:connector-curvature="0" />
    <path
       style="fill:#6c5353;stroke-width:0.26458332"
       id="path3851"
       d="m 189.13291,144.26329 c -0.92035,-2.2092 -2.28787,-4.20734 -3.63176,-6.17765 -1.0407,-1.67 -2.53474,-2.93206 -4.04854,-4.15102 -1.64521,-1.65515 -3.67094,-2.32711 -5.90805,-2.72017 -2.43489,-0.32044 -4.89616,-0.31636 -7.34736,-0.31214 -1.9849,-0.0335 -3.92205,0.47597 -5.84802,0.88838 -2.47123,0.45289 -4.92195,1.10156 -7.33304,1.81077 -1.9304,0.63177 -3.94224,1.12827 -5.74365,2.08514 -1.90958,0.84518 -3.7992,1.75462 -5.60618,2.80849 -3.91038,1.90243 -12.38274,6.89545 3.99131,-2.48013 -2.11954,1.23671 -3.9013,2.92759 -5.76399,4.50238 -1.73124,1.42628 -3.53428,2.74464 -5.1426,4.31425 -1.91056,1.79227 -3.28205,4.01359 -4.58761,6.25885 -1.25146,2.39927 -2.26892,4.91972 -3.28802,7.42541 -1.10931,2.52063 -1.69965,5.20115 -2.22231,7.89077 -0.57399,3.27977 -0.68664,6.61492 -0.76628,9.93629 -0.17633,3.83561 -0.0624,7.64173 0.46637,11.44311 0.63366,3.77979 2.2956,7.15197 4.31913,10.36193 1.91683,2.66943 4.26381,4.98769 6.77183,7.09681 1.45445,1.3325 3.22355,2.18858 4.92754,3.1389 1.69403,1.17227 3.48459,2.0951 5.47924,2.61266 1.54892,0.33303 3.13855,0.33693 4.71502,0.34389 2.33862,0.0527 4.64503,0.0747 6.95035,-0.35543 1.33023,-0.34858 2.66668,-0.78464 3.92031,-1.35752 0.3479,-0.15899 1.34139,-0.73576 1.00967,-0.54531 -9.32329,5.35275 -11.36698,6.73814 -7.81834,4.37964 1.66637,-1.13841 3.13546,-2.51453 4.48137,-4.01047 1.99092,-2.38334 3.01302,-5.3747 3.99711,-8.27548 0.95368,-2.68815 1.7426,-5.42241 2.52833,-8.16193 0.0105,-0.12321 -0.0803,-0.31675 0.0314,-0.36963 11.93387,-5.64594 10.40899,-7.33894 9.8767,-0.25878 -0.14138,2.16784 -0.18102,4.34032 -0.19994,6.51211 -0.0434,2.15411 -0.0311,4.30851 -0.0349,6.46286 -0.007,2.12306 0.0173,4.24612 0.0121,6.36916 0.0714,2.46445 -0.47982,4.88339 -0.88216,7.29991 -0.42453,2.5613 -0.55397,5.15428 -0.61323,7.74553 0.0156,2.41507 -0.77555,4.66637 -1.4001,6.96108 -0.96073,3.03857 -1.5563,6.16659 -2.31998,9.25519 -0.48114,2.28613 -1.36266,4.43435 -2.25805,6.57782 -0.74525,2.25201 -1.9132,4.31387 -3.0244,6.39672 -1.34305,2.48515 -2.60813,5.01041 -3.92744,7.50813 -1.05948,1.85977 -2.09448,3.75099 -3.58494,5.30338 -4.50379,4.06029 -9.48888,6.5069 -15.19122,7.38489 -2.57294,0.34036 -5.08227,1.00354 -7.67099,1.23513 -2.35417,0.16761 -4.71433,0.18891 -7.07323,0.20703 -2.14633,0.18087 -4.0687,-0.0985 -6.05415,-0.91408 -2.69365,-1.24431 -4.61845,-2.4982 -6.23697,-5.01621 -1.48397,-2.84308 -2.41991,-5.8737 -2.90712,-9.03146 -0.37538,-3.07919 -0.43296,-6.18412 -0.43514,-9.28227 -0.005,-3.15744 0.63743,-6.22598 1.45455,-9.25724 0.63346,-2.31237 1.33778,-4.62003 2.49752,-6.72672 0.4724,-0.84939 1.11728,-1.54033 1.81151,-2.20562 0,0 10.36828,-4.15775 10.36828,-4.15775 v 0 c -0.78357,0.50959 -1.48564,1.04513 -1.99156,1.85637 -1.32745,1.96565 -2.04545,4.22562 -2.70853,6.48985 -0.85971,2.93362 -1.56079,5.91008 -1.59774,8.98507 0.0243,3.05 0.004,6.10953 0.35263,9.14449 0.44149,3.00382 1.24021,5.91451 2.72444,8.58839 1.41484,2.11061 3.48957,3.50555 5.85592,4.4073 1.93141,0.58084 3.85686,0.65923 5.86804,0.57065 2.33063,-0.013 4.66639,-0.0412 6.98618,-0.2881 2.54211,-0.34399 5.05062,-0.88075 7.58527,-1.27392 1.13451,-0.25254 2.30999,-0.46977 3.38897,-0.92144 0.26537,-0.1111 1.01907,-0.5335 0.77106,-0.38774 -8.46048,4.97281 -11.98918,6.64871 -8.1467,4.79909 1.74629,-1.26685 2.69287,-3.18413 3.839,-4.9666 1.30981,-2.50293 2.60553,-5.01204 3.93952,-7.50196 1.02085,-2.06693 2.27843,-4.03083 2.98272,-6.24094 0.75598,-2.19534 2.03314,-4.20648 2.44499,-6.53418 0.83843,-3.05141 1.28473,-6.1935 2.24937,-9.2147 0.5351,-2.24509 1.44202,-4.39594 1.50195,-6.73563 0.0814,-2.63657 0.15511,-5.28284 0.57766,-7.8919 0.36561,-2.358 0.92473,-4.71166 0.89742,-7.10941 -0.006,-2.1261 0.016,-4.25224 0.007,-6.37836 -0.006,-2.15223 -0.002,-4.30447 -0.0109,-6.45668 0.0386,-2.20063 0.11537,-4.4003 0.24307,-6.5977 0.39144,-7.27627 -0.75806,-3.28895 10.46727,-9.03233 0.0908,-0.0464 -0.20261,-0.0229 -0.30392,-0.0343 -1.22149,2.60979 -1.62461,5.55919 -2.75894,8.21141 -0.9078,2.97382 -1.90225,6.03942 -3.69367,8.6088 -1.25801,1.60019 -2.69153,3.0711 -4.3561,4.24736 -4.72884,3.79256 -10.33925,6.97804 -16.31828,8.26742 -2.37984,0.29679 -4.76997,0.30456 -7.16612,0.28027 -1.63848,-0.0439 -3.28758,-0.13145 -4.8669,-0.61226 -1.99949,-0.67238 -3.81544,-1.69492 -5.59722,-2.81676 -1.78245,-0.95914 -3.54351,-1.95443 -5.01536,-3.37135 -2.4877,-2.27224 -4.8709,-4.67139 -6.80144,-7.44822 -2.11304,-3.33474 -3.89637,-6.82679 -4.5744,-10.75846 -0.50288,-3.84986 -0.75696,-7.69369 -0.57439,-11.57973 0.0649,-3.36501 0.16036,-6.73674 0.64482,-10.07304 0.47566,-2.74482 0.99003,-5.50189 2.12193,-8.06702 0.92418,-2.58337 2.09362,-5.09464 3.23911,-7.58637 1.26345,-2.28906 2.53355,-4.62561 4.39551,-6.49402 1.01306,-1.06492 2.05905,-2.12495 3.23531,-3.01267 0.31124,-0.23489 0.67382,-0.39563 0.98675,-0.62826 0.31824,-0.23659 0.60126,-0.51718 0.90189,-0.77577 1.8785,-1.57798 3.64031,-3.31703 5.71623,-4.63789 4.98942,-2.92531 9.88465,-5.91516 15.01846,-8.54894 1.84754,-1.00338 3.76887,-1.87133 5.67563,-2.75502 1.88414,-0.76455 3.84533,-1.34298 5.80036,-1.89537 2.45827,-0.64117 4.90545,-1.33741 7.4079,-1.78878 1.96216,-0.43238 3.95678,-0.76973 5.97467,-0.67812 2.4928,0.0327 5.00039,0.0477 7.46147,0.49562 2.36382,0.5396 4.46124,1.45747 6.25904,3.13332 1.58113,1.30099 3.07716,2.70661 4.15799,4.46776 1.35025,2.02747 2.71554,4.0624 3.81408,6.23905 0,0 -9.75115,5.55216 -9.75115,5.55216 z"
       inkscape:connector-curvature="0" />
  </g>
  <g
     inkscape:groupmode="layer"
     id="layer2"
     inkscape:label="Capa 2" />
</svg>
